<?xml version="1.0" standalone="no"?><!DOCTYPE svg PUBLIC "-//W3C//DTD SVG 1.1//EN" "http://www.w3.org/Graphics/SVG/1.1/DTD/svg11.dtd"><svg t="1627464091163" class="icon" viewBox="0 0 1024 1024" version="1.1" xmlns="http://www.w3.org/2000/svg" p-id="4693" xmlns:xlink="http://www.w3.org/1999/xlink" width="200" height="200"><defs><style type="text/css">@font-face { font-family: feedback-iconfont; src: url("//at.alicdn.com/t/font_1031158_1uhr8ri0pk5.eot?#iefix") format("embedded-opentype"), url("//at.alicdn.com/t/font_1031158_1uhr8ri0pk5.woff2") format("woff2"), url("//at.alicdn.com/t/font_1031158_1uhr8ri0pk5.woff") format("woff"), url("//at.alicdn.com/t/font_1031158_1uhr8ri0pk5.ttf") format("truetype"), url("//at.alicdn.com/t/font_1031158_1uhr8ri0pk5.svg#iconfont") format("svg"); }
</style></defs><path d="M512 115.46624c-122.24512 0-221.68576 101.04832-221.68576 225.25952 0 49.408 28.7232 93.88032 54.05696 133.09952 14.92992 23.11168 29.02016 44.94336 32.18432 61.25568 8.9088 46.06976 14.00832 155.33056 14.05952 156.42624 0.34816 7.63904 6.63552 13.64992 14.29504 13.64992L619.1104 705.15712c3.93216 0 7.68-1.61792 10.3936-4.47488 2.70336-2.8672 4.10624-6.7072 3.8912-10.62912-2.6624-47.88224-0.82944-132.79232 15.44192-156.8256 2.816-4.15744 6.05184-8.76544 9.56416-13.80352 28.16-40.192 75.30496-107.49952 75.30496-178.70848C733.68576 216.5248 634.24512 115.46624 512 115.46624zM634.96192 503.05024c-3.61472 5.15072-6.92224 9.89184-9.82016 14.16192-22.41536 33.1264-22.1184 122.40896-20.95104 159.35488L418.49856 676.56704c-1.67936-31.36512-6.4-108.32896-13.85472-146.8928-4.20864-21.78048-19.0464-44.7488-36.2496-71.36256-23.1936-35.91168-49.47968-76.5952-49.47968-117.57568 0-108.4416 86.62016-196.64896 193.08544-196.64896s193.08544 88.20736 193.08544 196.64896C705.08544 402.92352 661.18656 465.60256 634.96192 503.05024zM401.152 726.41536l221.68576 0 0 110.848c0 20.84864-13.50656 38.3488-32.18432 44.7488-3.46112 15.16544-16.96768 26.51136-33.18784 26.51136l-90.95168 0c-16.22016 0-29.72672-11.33568-33.18784-26.51136-18.67776-6.4-32.18432-23.90016-32.18432-44.7488L401.14176 726.41536z" p-id="4694"></path></svg>