<?xml version="1.0" standalone="no"?><!DOCTYPE svg PUBLIC "-//W3C//DTD SVG 1.1//EN" "http://www.w3.org/Graphics/SVG/1.1/DTD/svg11.dtd"><svg t="1627464060350" class="icon" viewBox="0 0 1024 1024" version="1.1" xmlns="http://www.w3.org/2000/svg" p-id="4548" xmlns:xlink="http://www.w3.org/1999/xlink" width="200" height="200"><defs><style type="text/css">@font-face { font-family: feedback-iconfont; src: url("//at.alicdn.com/t/font_1031158_1uhr8ri0pk5.eot?#iefix") format("embedded-opentype"), url("//at.alicdn.com/t/font_1031158_1uhr8ri0pk5.woff2") format("woff2"), url("//at.alicdn.com/t/font_1031158_1uhr8ri0pk5.woff") format("woff"), url("//at.alicdn.com/t/font_1031158_1uhr8ri0pk5.ttf") format("truetype"), url("//at.alicdn.com/t/font_1031158_1uhr8ri0pk5.svg#iconfont") format("svg"); }
</style></defs><path d="M511.8101 851.064175c-46.002929 0-90.646362-9.016654-132.700755-26.800054-40.594935-17.173627-77.04141-41.744509-108.339796-73.032898-31.288389-31.288389-55.869267-67.74486-73.032898-108.339796-17.783401-42.054394-26.800055-86.697827-26.800055-132.700756 0-46.002929 9.016654-90.646362 26.800055-132.700755 17.173627-40.594935 41.744509-77.04141 73.032898-108.339796 31.288389-31.288389 67.74486-55.869267 108.339796-73.032898 42.054394-17.783401 86.697827-26.800055 132.700755-26.800055 46.002929 0 90.646362 9.016654 132.700756 26.800055 40.594935 17.173627 77.04141 41.744509 108.339796 73.032898 31.288389 31.288389 55.869267 67.74486 73.032897 108.339796 17.783401 42.054394 26.800055 86.697827 26.800055 132.700755 0 46.002929-9.016654 90.646362-26.800055 132.700756-17.173627 40.594935-41.744509 77.04141-73.032897 108.339796-31.288389 31.288389-67.74486 55.869267-108.339796 73.032898-42.054394 17.783401-86.697827 26.800055-132.700756 26.800054z m0-601.776684c-143.866612 0-260.90318 117.036568-260.90318 260.90318s117.036568 260.90318 260.90318 260.903181 260.90318-117.036568 260.903181-260.903181-117.036568-260.90318-260.903181-260.90318z" p-id="4549"></path><path d="M511.8101 62.35686m-61.977001 0a61.977001 61.977001 0 1 0 123.954002 0 61.977001 61.977001 0 1 0-123.954002 0Z" p-id="4550"></path><path d="M511.8101 962.022999m-61.977001 0a61.977001 61.977001 0 1 0 123.954002 0 61.977001 61.977001 0 1 0-123.954002 0Z" p-id="4551"></path><path d="M193.738135 194.117964m-61.977001 0a61.977001 61.977001 0 1 0 123.954001 0 61.977001 61.977001 0 1 0-123.954001 0Z" p-id="4552"></path><path d="M829.892062 830.271891m-61.977001 0a61.977001 61.977001 0 1 0 123.954002 0 61.977001 61.977001 0 1 0-123.954002 0Z" p-id="4553"></path><path d="M61.97703 512.18993m-61.977 0a61.977001 61.977001 0 1 0 123.954001 0 61.977001 61.977001 0 1 0-123.954001 0Z" p-id="4554"></path><path d="M961.64317 512.18993m-61.977001 0a61.977001 61.977001 0 1 0 123.954002 0 61.977001 61.977001 0 1 0-123.954002 0Z" p-id="4555"></path><path d="M193.738135 830.271891m-61.977001 0a61.977001 61.977001 0 1 0 123.954001 0 61.977001 61.977001 0 1 0-123.954001 0Z" p-id="4556"></path><path d="M829.892062 194.117964m-61.977001 0a61.977001 61.977001 0 1 0 123.954002 0 61.977001 61.977001 0 1 0-123.954002 0Z" p-id="4557"></path></svg>