<?xml version="1.0" standalone="no"?><!DOCTYPE svg PUBLIC "-//W3C//DTD SVG 1.1//EN" "http://www.w3.org/Graphics/SVG/1.1/DTD/svg11.dtd"><svg t="1627463980137" class="icon" viewBox="0 0 1024 1024" version="1.1" xmlns="http://www.w3.org/2000/svg" p-id="1746" xmlns:xlink="http://www.w3.org/1999/xlink" width="200" height="200"><defs><style type="text/css">@font-face { font-family: feedback-iconfont; src: url("//at.alicdn.com/t/font_1031158_1uhr8ri0pk5.eot?#iefix") format("embedded-opentype"), url("//at.alicdn.com/t/font_1031158_1uhr8ri0pk5.woff2") format("woff2"), url("//at.alicdn.com/t/font_1031158_1uhr8ri0pk5.woff") format("woff"), url("//at.alicdn.com/t/font_1031158_1uhr8ri0pk5.ttf") format("truetype"), url("//at.alicdn.com/t/font_1031158_1uhr8ri0pk5.svg#iconfont") format("svg"); }
</style></defs><path d="M63.999 512.313a447.461 447.414 0 1 0 894.922 0 447.461 447.414 0 1 0-894.922 0Z" fill="#BAE7FF" p-id="1747"></path><path d="M818.799 430.58c-16.997-40.18-41.321-76.258-72.298-107.232-30.975-30.973-67.057-55.293-107.242-72.289-41.624-17.602-85.816-26.527-131.352-26.527-45.533 0-89.728 8.926-131.352 26.527-40.186 16.996-76.268 41.316-107.242 72.289-30.977 30.975-55.302 67.053-72.298 107.232-17.606 41.623-26.534 85.813-26.534 131.344 0 0.449 0.007 0.898 0.009 1.348h33.246c-0.002-0.449-0.008-0.898-0.008-1.348 0-41.059 8.044-80.891 23.906-118.391 15.32-36.217 37.253-68.744 65.185-96.676 27.936-27.93 60.465-49.859 96.687-65.178 37.505-15.861 77.342-23.904 118.401-23.904 41.061 0 80.896 8.043 118.4 23.904 36.224 15.318 68.752 37.248 96.685 65.178 27.936 27.932 49.866 60.459 65.187 96.676 15.863 37.5 23.907 77.332 23.907 118.391 0 0.449-0.006 0.898-0.008 1.348h33.246c0.002-0.449 0.008-0.898 0.008-1.348 0-45.531-8.927-89.721-26.533-131.344z" fill="#FCD22E" p-id="1748"></path><path d="M647.77 422.09c-37.358-37.355-87.028-57.926-139.862-57.926s-102.504 20.57-139.862 57.926c-37.355 37.352-57.928 87.012-57.928 139.834 0 0.449 0.013 0.898 0.016 1.348h33.247c-0.004-0.449-0.017-0.898-0.017-1.348 0-43.939 17.113-85.252 48.188-116.324 31.078-31.074 72.401-48.188 116.355-48.188 43.953 0 85.276 17.113 116.355 48.188 31.073 31.072 48.188 72.385 48.188 116.324 0 0.449-0.012 0.898-0.017 1.348h33.245c0.005-0.449 0.019-0.898 0.019-1.348 0-52.822-20.573-102.483-57.927-139.834z" fill="#FCD22E" p-id="1749"></path><path d="M671.278 398.58c-43.639-43.633-101.656-67.662-163.371-67.662-61.713 0-119.733 24.029-163.37 67.662-43.636 43.633-67.667 101.641-67.667 163.344 0 0.449 0.015 0.898 0.017 1.348h33.246c-0.003-0.449-0.016-0.898-0.016-1.348 0-52.822 20.572-102.482 57.928-139.834 37.358-37.355 87.028-57.926 139.862-57.926s102.504 20.57 139.862 57.926c37.354 37.352 57.928 87.012 57.928 139.834 0 0.449-0.014 0.898-0.019 1.348h33.248c0.003-0.449 0.018-0.898 0.018-1.348 0-61.703-24.032-119.711-67.666-163.344z" fill="#FFFFFF" p-id="1750"></path><path d="M751.436 459.076c-13.31-31.461-32.368-59.727-56.65-84.006-24.283-24.277-52.55-43.338-84.018-56.645-32.56-13.771-67.167-20.756-102.86-20.756-35.692 0-70.301 6.984-102.861 20.756-31.468 13.307-59.734 32.367-84.016 56.645-24.282 24.279-43.343 52.545-56.651 84.006-13.772 32.557-20.756 67.16-20.756 102.848 0 0.449 0.007 0.898 0.009 1.348h33.254c-0.002-0.449-0.017-0.898-0.017-1.348 0-61.703 24.031-119.711 67.667-163.344 43.637-43.633 101.657-67.662 163.37-67.662 61.715 0 119.732 24.029 163.371 67.662 43.634 43.633 67.666 101.641 67.666 163.344 0 0.449-0.015 0.898-0.018 1.348h33.254c0.002-0.449 0.009-0.898 0.009-1.348 0.001-35.688-6.981-70.291-20.753-102.848z" fill="#FCD22E" p-id="1751"></path><path d="M788.179 443.533c-15.32-36.217-37.251-68.744-65.187-96.676-27.933-27.93-60.461-49.859-96.685-65.178-37.504-15.861-77.34-23.904-118.4-23.904s-80.896 8.043-118.401 23.904c-36.222 15.318-68.751 37.248-96.687 65.178-27.932 27.932-49.864 60.459-65.185 96.676-15.862 37.5-23.906 77.332-23.906 118.391 0 0.449 0.006 0.898 0.008 1.348H243.631c-0.002-0.449-0.009-0.898-0.009-1.348 0-35.688 6.983-70.291 20.756-102.848 13.309-31.461 32.369-59.727 56.651-84.006 24.281-24.277 52.548-43.338 84.016-56.645 32.561-13.771 67.169-20.756 102.861-20.756 35.693 0 70.301 6.984 102.86 20.756 31.468 13.307 59.734 32.367 84.018 56.645 24.282 24.279 43.341 52.545 56.65 84.006 13.772 32.557 20.755 67.16 20.755 102.848 0 0.449-0.007 0.898-0.009 1.348h39.896c0.002-0.449 0.008-0.898 0.008-1.348 0.002-41.059-8.042-80.891-23.905-118.391z" fill="#FFFFFF" p-id="1752"></path><path d="M375 642.098l-209.976-0.834s-38.329-0.832-40.828-45.828c0 0-1.667-37.494 39.161-46.66l6.666-2.5s-15.831-49.16 49.994-65.826c0 0 45.828-5.832 61.659 41.662 0 0 39.955-14.301 64.16 9.166 0 0 15.651 10.695 18.331 27.496 0 0 37.495-0.832 39.162 41.662 0.001 0 5.007 41.794-28.329 41.662zM647.921 642.097l209.975-0.834s38.329-0.832 40.828-45.828c0 0 1.667-37.494-39.161-46.66l-6.666-2.5s15.831-49.16-49.994-65.824c0 0-45.828-5.834-61.659 41.66 0 0-39.955-14.299-64.16 9.166 0 0-15.651 10.697-18.331 27.496 0 0-37.495-0.832-39.162 41.662-0.001 0-5.006 41.796 28.33 41.662z" fill="#FFFFFF" p-id="1753"></path></svg>