<?xml version="1.0" standalone="no"?><!DOCTYPE svg PUBLIC "-//W3C//DTD SVG 1.1//EN" "http://www.w3.org/Graphics/SVG/1.1/DTD/svg11.dtd"><svg t="1627532419049" class="icon" viewBox="0 0 1024 1024" version="1.1" xmlns="http://www.w3.org/2000/svg" p-id="1422" xmlns:xlink="http://www.w3.org/1999/xlink" width="200" height="200"><defs><style type="text/css">@font-face { font-family: feedback-iconfont; src: url("//at.alicdn.com/t/font_1031158_1uhr8ri0pk5.eot?#iefix") format("embedded-opentype"), url("//at.alicdn.com/t/font_1031158_1uhr8ri0pk5.woff2") format("woff2"), url("//at.alicdn.com/t/font_1031158_1uhr8ri0pk5.woff") format("woff"), url("//at.alicdn.com/t/font_1031158_1uhr8ri0pk5.ttf") format("truetype"), url("//at.alicdn.com/t/font_1031158_1uhr8ri0pk5.svg#iconfont") format("svg"); }
</style></defs><path d="M955.751784 0H68.248216A68.248216 68.248216 0 0 0 0 68.248216v887.503568A68.248216 68.248216 0 0 0 68.248216 1024h887.503568A68.248216 68.248216 0 0 0 1024 955.751784V68.248216A68.248216 68.248216 0 0 0 955.751784 0z m3.653189 927.411892a31.93773 31.93773 0 0 1-31.93773 31.93773H96.588108a31.93773 31.93773 0 0 1-31.93773-31.93773V96.588108a31.93773 31.93773 0 0 1 31.93773-31.93773h830.823784a31.93773 31.93773 0 0 1 31.93773 31.93773z" p-id="1423"></path><path d="M119.448216 809.79027l15.110919-58.672432c77.491892 66.421622 152.271568 66.421622 225.944216 0.276757 182.050595-163.065081 376.389189-187.419676 530.985514 29.612973l-21.531676 51.587459c-142.031568-199.264865-322.421622-176.515459-493.734054-23.136865-83.414486 74.724324-169.651892 74.724324-256.83027 0z" p-id="1424"></path><path d="M119.448216 569.620757l15.110919-58.672433c77.491892 66.421622 152.271568 66.421622 225.944216 0.276757 182.050595-163.065081 376.389189-187.419676 530.985514 29.612973l-21.476324 51.421405c-142.031568-199.264865-322.421622-176.515459-493.734055-23.136864-83.414486 74.724324-169.651892 74.724324-256.83027 0z" p-id="1425"></path><path d="M119.448216 329.451243l15.110919-58.672432c77.491892 66.421622 152.271568 66.421622 225.944216 0.276757 182.050595-163.065081 376.389189-187.419676 530.985514 29.612973l-21.531676 51.587459c-142.031568-199.264865-322.421622-176.515459-493.734054-23.136865C292.864 404.064865 206.626595 404.064865 119.448216 329.451243z" p-id="1426"></path></svg>