<?xml version="1.0" standalone="no"?><!DOCTYPE svg PUBLIC "-//W3C//DTD SVG 1.1//EN" "http://www.w3.org/Graphics/SVG/1.1/DTD/svg11.dtd"><svg t="1627464449125" class="icon" viewBox="0 0 1024 1024" version="1.1" xmlns="http://www.w3.org/2000/svg" p-id="1336" xmlns:xlink="http://www.w3.org/1999/xlink" width="200" height="200"><defs><style type="text/css">@font-face { font-family: feedback-iconfont; src: url("//at.alicdn.com/t/font_1031158_1uhr8ri0pk5.eot?#iefix") format("embedded-opentype"), url("//at.alicdn.com/t/font_1031158_1uhr8ri0pk5.woff2") format("woff2"), url("//at.alicdn.com/t/font_1031158_1uhr8ri0pk5.woff") format("woff"), url("//at.alicdn.com/t/font_1031158_1uhr8ri0pk5.ttf") format("truetype"), url("//at.alicdn.com/t/font_1031158_1uhr8ri0pk5.svg#iconfont") format("svg"); }
</style></defs><path d="M536.78 198.87v-53.02c0-13.44-5.38-25.66-14.42-34.69-8.8-8.8-21.01-14.17-34.45-14.17a48.688 48.688 0 0 0-48.86 48.86v53.02c15.88-2.69 32.25-4.15 48.86-4.15s32.99 1.46 48.87 4.15zM194.73 487.91c0-16.61 1.47-32.98 4.15-48.86h-53.02A48.688 48.688 0 0 0 97 487.91c0 26.87 21.75 48.86 48.86 48.86h53.02c-2.69-15.88-4.15-32.25-4.15-48.86zM248.97 318.1c19.06-26.63 42.27-50.09 69.14-69.14l-37.63-37.63c-19.06-19.06-49.84-19.06-69.14 0-19.06 19.3-19.06 50.09 0 69.14l37.63 37.63zM536.78 727.34c31.27-6.35 60.1-18.57 85.76-35.67 27.36-18.08 50.82-41.54 69.14-69.14 16.86-25.66 29.32-54.73 35.67-85.76 3.18-15.88 4.89-32.25 4.89-48.86 0-16.86-1.71-33.23-4.89-48.86-6.35-31.27-18.81-60.35-35.67-86-18.32-27.36-42.02-51.06-69.39-68.9-25.41-17.1-54.48-29.32-85.51-35.67-15.64-3.17-32.01-4.89-48.86-4.89s-33.23 1.71-48.86 4.89c-31.27 6.35-60.1 18.57-85.76 35.67a239.11 239.11 0 0 0-69.14 69.14c-17.1 25.65-29.32 54.48-35.67 85.76-3.18 15.64-4.89 32.01-4.89 48.86 0 16.61 1.71 32.98 4.89 48.86 6.35 31.03 18.57 59.86 35.67 85.51 18.08 27.61 41.54 51.06 68.9 69.39 25.65 16.86 54.73 29.32 86 35.67 15.64 3.18 32.01 4.89 48.86 4.89s33.22-1.71 48.86-4.89zM298.32 711.22a282.387 282.387 0 0 1-17.84-16.37c-5.13-5.13-10.02-10.51-14.9-16.12-1.71-1.95-3.42-3.91-4.89-5.86-4.15-4.89-7.82-10.02-11.48-15.15-0.24 0-0.24-0.24-0.24-0.24l-34.94 34.94-2.69 2.69c-9.53 9.53-14.17 21.99-14.17 34.45 0 11.97 4.15 23.46 12.71 32.74 0 0.49 0.49 0.98 0.98 1.22 0 0.24 0.24 0.49 0.49 0.73 0.49 0.49 1.22 1.22 1.96 1.71 19.3 17.35 48.62 16.86 67.19-1.71l2.44-2.44 35.18-35.18c-6.6-4.89-13.19-9.77-19.55-15.15 0-0.02 0-0.02-0.25-0.26zM726.62 318.1l37.63-37.63c19.06-19.06 19.06-49.84 0-69.14-19.06-19.06-50.09-19.06-69.14 0l-37.63 37.63c26.87 19.06 50.33 42.51 69.14 69.14z" p-id="1337"></path><path d="M732.48 649.4c-22.23 33.47-50.09 61.33-83.07 83.07-31.27 20.77-65.97 35.18-102.86 42.76-11.98 2.46-24.25 4.14-36.62 5.05-12.52 0.92-22.01 11.69-22.01 24.24 0 14.44 12.44 25.52 26.84 24.41 13.96-1.07 27.86-2.99 41.57-5.82 43.25-8.8 83.56-25.65 119.96-49.84 38.6-25.41 71.1-58.15 97-97 24.43-37.14 41.05-77.45 49.84-120.45 2.81-13.59 4.72-27.35 5.79-41.08 1.13-14.4-9.98-26.84-24.42-26.84-12.55 0-23.28 9.48-24.23 21.99-0.92 12.17-2.59 24.38-5.03 36.4-7.57 36.66-21.74 71.35-42.76 103.11z" p-id="1338"></path><path d="M902.43 487.91c-13.16 0-23.52 10.44-24.34 23.58-1.12 17.97-3.51 36.04-7.08 53.87-10.02 49.35-29.07 95.53-56.93 137.55-29.56 44.71-66.7 82.09-110.68 111.17-41.78 27.61-87.96 46.91-137.55 56.93a395.956 395.956 0 0 1-54.33 7.1c-13.14 0.8-23.61 11.16-23.61 24.33 0 13.81 11.46 25.31 25.24 24.53 21.08-1.19 42.03-3.89 62.47-8.08 55.71-11.24 107.75-32.98 154.66-64.01 49.6-32.74 91.38-74.76 124.85-125.09 31.03-47.4 52.53-99.44 64.01-154.9 3.99-20.45 6.62-41.15 7.82-61.75 0.8-13.79-10.71-25.23-24.52-25.23h-0.01z" p-id="1339"></path></svg>