# 3ds Max Wavefront OBJ Exporter v0.97b - (c)2007 guruware
# 创建的文件:26.08.2021 16:36:52

mtllib cabinet_2.mtl

#
# object Box001
#

v  -17.3787 26.0635 -9.2587
v  48.2153 26.0635 -9.2587
v  48.2153 26.0635 30.7413
v  46.3065 26.0635 30.7413
v  -15.4109 26.0635 30.7413
v  -17.3787 26.0635 30.7413
v  -17.3787 90.0635 30.7413
v  48.2153 90.0635 30.7413
v  48.2153 90.0635 -9.2587
v  -17.3787 90.0635 -9.2587
v  -15.4924 75.8485 30.7413
v  -15.4924 74.1516 30.7413
v  46.3289 74.1516 30.7413
v  46.3289 75.8485 30.7413
v  105.4183 31.1835 -9.2587
v  105.4183 84.9435 -9.2587
v  105.4183 84.9435 30.7413
v  105.4183 31.1835 30.7413
v  -17.3787 84.9435 -9.2587
v  48.2153 84.9435 -9.2587
v  48.2153 31.1835 -9.2587
v  -17.3787 31.1835 -9.2587
v  -74.5817 31.1835 30.7413
v  -74.5817 84.9435 30.7413
v  -74.5817 84.9435 -9.2587
v  -74.5817 31.1835 -9.2587
v  105.4183 26.0635 -4.5587
v  105.4183 26.0635 26.0413
v  100.2418 26.0635 26.0413
v  100.2418 26.0635 -4.5587
v  -74.5817 26.0635 26.0413
v  -74.5817 26.0635 -4.5587
v  -69.4052 26.0635 -4.5587
v  -69.4052 26.0635 26.0413
v  100.2418 90.0635 30.7413
v  105.4183 90.0635 30.7413
v  105.4183 90.0635 -9.2587
v  100.2418 90.0635 -9.2587
v  -69.4052 90.0635 -9.2587
v  -74.5817 90.0635 -9.2587
v  -74.5817 90.0635 30.7413
v  -69.4052 90.0635 30.7413
v  105.4183 31.1835 32.7413
v  105.4183 84.9435 32.7413
v  100.2418 84.9435 32.7413
v  100.2418 31.1835 32.7413
v  -74.5817 84.9435 32.7413
v  -74.5817 31.1835 32.7413
v  -69.4052 31.1835 32.7413
v  -69.4052 84.9435 32.7413
v  -69.4052 84.9435 -9.2587
v  -69.4052 31.1835 -9.2587
v  100.2418 31.1835 -9.2587
v  100.2418 84.9435 -9.2587
v  -17.3787 88.0535 30.7413
v  -15.4924 88.0535 30.7413
v  46.3289 88.0535 30.7413
v  48.2153 88.0535 30.7413
v  105.4183 26.0635 30.7413
v  105.4183 26.0635 -9.2587
v  -74.5817 26.0635 -9.2587
v  -74.5817 26.0635 30.7413
v  105.4183 90.0635 32.7413
v  100.2418 90.0635 32.7413
v  100.2418 26.0635 32.7413
v  105.4183 26.0635 32.7413
v  -74.5817 26.0635 32.7413
v  -69.4052 26.0635 32.7413
v  -69.4052 90.0635 32.7413
v  -74.5817 90.0635 32.7413
v  -69.4052 26.0635 -9.2587
v  100.2418 26.0635 -9.2587
v  52.7406 26.0635 -9.2587
v  100.2418 26.0635 30.7413
v  52.7406 26.0635 30.7413
v  -21.9041 26.0635 30.7413
v  -69.4052 26.0635 30.7413
v  -21.9041 26.0635 -9.2587
v  52.7406 90.0635 30.7413
v  52.7406 90.0635 -9.2587
v  -21.9041 90.0635 -9.2587
v  -21.9041 90.0635 30.7413
v  -21.9041 84.9435 -6.2587
v  -69.4052 84.9435 -6.2587
v  -69.4052 31.1835 -6.2587
v  -21.9041 31.1835 -6.2587
v  52.7406 31.1835 -6.2587
v  100.2418 31.1835 -6.2587
v  100.2418 84.9435 -6.2587
v  52.7406 84.9435 -6.2587
v  52.7406 84.9435 -9.2587
v  52.7406 31.1835 -9.2587
v  -21.9041 31.1835 -9.2587
v  -21.9041 84.9435 -9.2587
v  -69.4052 84.9435 30.7413
v  -21.9041 84.9435 30.7413
v  52.7406 84.9435 30.7413
v  100.2418 84.9435 30.7413
v  100.2418 31.1835 30.7413
v  52.7406 31.1835 30.7413
v  -21.9041 31.1835 30.7413
v  -69.4052 31.1835 30.7413
v  -17.3787 84.9435 32.7413
v  -21.9041 84.9435 32.7413
v  -21.9041 31.1835 32.7413
v  -17.3787 31.1835 32.7413
v  48.2153 31.1835 32.7413
v  52.7406 31.1835 32.7413
v  52.7406 84.9435 32.7413
v  48.2153 84.9435 32.7413
v  -17.3787 90.0635 32.7413
v  -21.9041 90.0635 32.7413
v  52.7406 90.0635 32.7413
v  48.2153 90.0635 32.7413
v  48.2153 26.0635 32.7413
v  52.7406 26.0635 32.7413
v  -21.9041 26.0635 32.7413
v  -17.3787 26.0635 32.7413
v  -22.0052 26.0635 30.7413
v  -22.0052 31.1835 30.7413
v  -22.0052 31.1835 32.7413
v  -22.0052 26.0635 32.7413
v  -22.0052 84.9435 30.7413
v  -22.0052 84.9435 32.7413
v  -22.0052 90.0635 30.7413
v  -22.0052 90.0635 32.7413
v  52.8418 90.0635 30.7413
v  52.8418 84.9435 30.7413
v  52.8418 84.9435 32.7413
v  52.8418 90.0635 32.7413
v  52.8418 31.1835 30.7413
v  52.8418 31.1835 32.7413
v  52.8418 26.0635 30.7413
v  52.8418 26.0635 32.7413
v  48.2153 61.9466 30.7413
v  46.3855 61.9466 30.7413
v  46.3815 60.1524 30.7413
v  -17.3787 61.9466 30.7413
v  -15.5490 61.9466 30.7413
v  -15.4924 61.9466 30.7413
v  46.3289 61.9466 30.7413
v  -15.4924 74.1516 -6.2587
v  -15.4924 61.9466 -6.2587
v  46.3289 61.9466 -6.2587
v  46.3289 74.1516 -6.2587
v  46.3289 75.8485 -6.2587
v  46.3289 88.0535 -6.2587
v  -15.4924 88.0535 -6.2587
v  -15.4924 75.8485 -6.2587
v  -15.5421 60.1524 30.7413
v  -15.5421 60.1524 32.7413
v  -15.4109 26.0635 32.7413
v  46.3065 26.0635 32.7413
v  46.3815 60.1524 32.7413
v  -74.5817 16.0635 -4.5587
v  -74.5817 16.0635 -9.2587
v  -69.4052 16.0635 -9.2587
v  -69.4052 16.0635 -4.5587
v  -69.4052 16.0635 26.0413
v  -69.4052 16.0635 30.7413
v  -74.5817 16.0635 30.7413
v  -74.5817 16.0635 26.0413
v  105.4183 16.0635 26.0413
v  105.4183 16.0635 30.7413
v  100.2418 16.0635 30.7413
v  100.2418 16.0635 26.0413
v  100.2418 16.0635 -4.5587
v  100.2418 16.0635 -9.2587
v  105.4183 16.0635 -9.2587
v  105.4183 16.0635 -4.5587
# 170 vertices

vn 0.0000 -0.7071 -0.7071
vn -0.3015 -0.9045 0.3015
vn 0.3013 -0.9048 0.3010
vn -0.3013 -0.9049 0.3005
vn 0.3015 -0.9045 0.3015
vn 0.3015 0.9045 0.3015
vn -0.3015 0.9045 0.3015
vn 0.0000 0.7071 -0.7071
vn 0.3015 0.3015 0.9045
vn 0.3015 -0.3015 0.9045
vn -0.3015 -0.3015 0.9045
vn -0.3015 0.3015 0.9045
vn 0.7071 0.0000 -0.7071
vn 1.0000 0.0000 -0.0000
vn 0.0000 0.0000 -1.0000
vn -1.0000 0.0000 -0.0000
vn -0.7071 0.0000 -0.7071
vn 0.9045 -0.3015 0.3015
vn 0.9045 -0.3015 -0.3015
vn -0.3015 -0.9045 -0.3015
vn -0.9045 -0.3015 -0.3015
vn -0.9045 -0.3015 0.3015
vn 0.3015 -0.9045 -0.3015
vn 0.0000 1.0000 -0.0000
vn 0.7071 0.7071 -0.0000
vn 0.5774 0.5774 -0.5774
vn -0.5774 0.5774 -0.5774
vn -0.7071 0.7071 -0.0000
vn 0.7071 0.0000 0.7071
vn 0.0000 0.0000 1.0000
vn -0.7071 0.0000 0.7071
vn 0.5774 0.5774 0.5774
vn 0.0000 0.7071 0.7071
vn 0.0000 -0.7071 0.7071
vn 0.5774 -0.5774 0.5774
vn -0.5774 -0.5774 0.5774
vn -0.5774 0.5774 0.5774
vn 0.3015 -0.3015 -0.9045
vn -0.3015 -0.3015 -0.9045
vn -0.5774 -0.5774 -0.5774
vn 0.9045 0.3015 0.3015
vn -0.9045 0.3015 0.3015
vn 0.7071 -0.0000 0.7071
vn 0.5774 0.5773 0.5774
vn -0.5774 -0.5773 0.5774
vn 0.4701 -0.2880 0.8343
vn 0.4701 0.2880 0.8343
vn 0.7158 0.4938 -0.4938
vn 0.7158 -0.4938 -0.4938
vn 0.1602 0.0000 0.9871
vn 0.5774 -0.5774 -0.5774
vn 0.4865 0.2433 -0.8391
vn 0.4865 -0.2433 -0.8391
vn 0.3014 0.3008 0.9048
vn -0.3014 0.3003 0.9050
vn -0.5786 0.5763 0.5771
vn -0.5761 -0.5784 0.5776
vn 0.5766 -0.5780 0.5775
vn 0.5780 0.5768 0.5773
# 59 vertex normals

vt 0.6822 1.0000 0.0000
vt 0.3178 1.0000 0.0000
vt 0.3178 0.0000 0.0000
vt 0.3284 0.0000 0.0000
vt 0.6713 0.0000 0.0000
vt 0.6822 0.0000 0.0000
vt 0.3283 0.7688 0.0000
vt 0.3283 0.7478 0.0000
vt 0.6717 0.7478 0.0000
vt 0.6717 0.7688 0.0000
vt 1.0000 0.0800 0.0000
vt 1.0000 0.9200 0.0000
vt 0.0000 0.9200 0.0000
vt 0.0000 0.0800 0.0000
vt 0.6822 0.9200 0.0000
vt 0.3178 0.9200 0.0000
vt 0.3178 0.0800 0.0000
vt 0.6822 0.0800 0.0000
vt 0.0000 0.8825 0.0000
vt 0.0000 0.1175 0.0000
vt 0.0288 0.1175 0.0000
vt 0.0288 0.8825 0.0000
vt 1.0000 0.1175 0.0000
vt 1.0000 0.8825 0.0000
vt 0.9712 0.8825 0.0000
vt 0.9712 0.1175 0.0000
vt 0.9712 0.0000 0.0000
vt 1.0000 0.0000 0.0000
vt 1.0000 1.0000 0.0000
vt 0.9712 1.0000 0.0000
vt 0.0288 1.0000 0.0000
vt 0.0000 1.0000 0.0000
vt 0.0000 0.0000 0.0000
vt 0.0288 0.0000 0.0000
vt 0.9712 0.9200 0.0000
vt 0.9712 0.0800 0.0000
vt 0.0288 0.0800 0.0000
vt 0.0288 0.9200 0.0000
vt 0.3283 0.9200 0.0000
vt 0.6717 0.9200 0.0000
vt 0.1175 0.0000 0.0000
vt 0.8825 0.0000 0.0000
vt 0.2927 1.0000 0.0000
vt 0.2927 0.0000 0.0000
vt 0.7073 0.0000 0.0000
vt 0.7073 1.0000 0.0000
vt 0.2927 0.9200 0.0000
vt 0.2927 0.0800 0.0000
vt 0.7073 0.0800 0.0000
vt 0.7073 0.9200 0.0000
vt 0.6822 0.5966 0.0000
vt 0.6720 0.5966 0.0000
vt 0.6543 0.5668 0.0000
vt 0.3178 0.5966 0.0000
vt 0.3280 0.5966 0.0000
vt 0.3283 0.5966 0.0000
vt 0.6717 0.5966 0.0000
vt 0.3275 0.5668 0.0000
# 58 texture coords

o Box001
g Box001
usemtl wire_115115115
s 2
f 1/1/1 2/2/1 3/3/2 4/4/3 5/5/4 6/6/5 
s 4
f 7/3/6 8/6/7 9/1/8 10/2/8 
s 8
f 11/7/9 12/8/10 13/9/11 14/10/12 
s 16
f 15/11/13 16/12/13 17/13/14 18/14/14 
s 32
f 19/15/15 20/16/15 21/17/15 22/18/15 
s 64
f 23/11/16 24/12/16 25/13/17 26/14/17 
s 2
f 27/19/18 28/20/19 29/21/20 30/22/2 
f 31/23/21 32/24/22 33/25/5 34/26/23 
s 4
f 35/27/24 36/28/25 37/29/26 38/30/8 
f 39/31/8 40/32/27 41/33/28 42/34/24 
s 8
f 43/11/29 44/12/29 45/35/30 46/36/30 
f 47/13/31 48/14/31 49/37/30 49/37/14 50/38/14 50/38/30 
s 32
f 26/11/17 25/12/17 51/35/15 52/36/15 
f 16/13/13 15/14/13 53/37/15 54/38/15 
s 8
f 8/1/7 7/2/6 55/16/30 56/39/10 57/40/11 58/15/31 
s 16
f 16/12/13 37/29/26 36/32/25 17/13/14 
f 18/14/14 59/33/18 28/41/19 27/42/18 60/28/13 15/11/13 
s 32
f 10/1/8 9/2/8 20/16/15 19/15/15 
f 2/3/1 1/6/1 22/18/15 21/17/15 
s 64
f 24/12/16 41/29/28 40/32/27 25/13/17 
f 26/14/17 61/33/17 32/41/22 31/42/21 62/28/22 23/11/16 
s 8
f 44/12/29 63/29/32 64/30/33 45/35/30 
f 46/36/30 65/27/34 66/28/35 43/11/29 
f 48/14/31 67/33/36 68/34/34 49/37/30 
f 50/38/30 69/31/33 70/32/37 47/13/31 
s 32
f 25/12/17 40/29/27 39/30/8 51/35/15 
f 52/36/15 71/27/38 61/28/17 26/11/17 
f 15/14/13 60/33/13 72/34/39 53/37/15 
f 54/38/15 38/31/8 37/32/26 16/13/13 
s 2
f 73/43/1 72/31/39 30/22/2 29/21/20 74/34/2 75/44/5 
f 76/45/2 77/27/5 34/26/23 33/25/5 71/30/38 78/46/1 
s 4
f 79/45/6 35/27/24 38/30/8 80/46/8 
f 81/43/8 39/31/8 42/34/24 82/44/7 
s 8
f 83/47/36 84/38/14 84/38/35 85/37/32 85/37/14 86/48/37 
f 87/49/32 88/36/37 89/35/36 90/50/35 
s 32
f 91/47/15 54/38/15 53/37/15 92/48/15 
f 93/49/15 52/36/15 51/35/15 94/50/15 
s 8
f 82/43/7 42/31/24 95/38/14 96/47/22 
f 97/50/18 98/35/40 35/30/24 79/46/6 
f 75/45/5 74/27/2 99/36/27 100/49/41 
f 101/48/42 102/37/14 77/34/5 76/44/2 
s 32
f 80/43/8 38/31/8 54/38/15 91/47/15 
f 94/50/15 51/35/15 39/30/8 81/46/8 
f 78/45/1 71/27/38 52/36/15 93/49/15 
f 92/48/15 53/37/15 72/34/39 73/44/1 
s 2
f 2/2/1 73/43/1 75/44/5 3/3/2 
f 6/6/5 76/45/2 78/46/1 1/1/1 
s 4
f 8/6/7 79/45/6 80/46/8 9/1/8 
f 10/2/8 81/43/8 82/44/7 7/3/6 
s 8
f 103/16/43 104/47/31 105/48/31 106/17/43 
f 107/18/31 108/49/29 109/50/29 110/15/31 
s 32
f 20/16/15 91/47/15 92/48/15 21/17/15 
f 22/18/15 93/49/15 94/50/15 19/15/15 
s 8
f 111/2/44 112/43/37 104/47/31 103/16/43 
f 110/15/31 109/50/29 113/46/32 114/1/37 
f 115/6/45 116/45/35 108/49/29 107/18/31 
f 106/17/43 105/48/31 117/44/36 118/3/35 
s 32
f 9/2/8 80/43/8 91/47/15 20/16/15 
f 19/15/15 94/50/15 81/46/8 10/1/8 
f 1/6/1 78/45/1 93/49/15 22/18/15 
f 21/17/15 92/48/15 73/44/1 2/3/1 
s off
f 7/2/6 82/43/7 112/43/37 111/2/44 
f 101/48/42 76/44/2 117/44/36 105/48/31 
f 76/44/2 6/3/5 118/3/35 117/44/36 
f 3/6/2 75/45/5 116/45/35 115/6/45 
f 75/45/5 100/49/41 108/49/29 116/45/35 
f 100/49/41 97/50/18 109/50/29 108/49/29 
f 97/50/18 79/46/6 113/46/32 109/50/29 
f 79/46/6 8/1/7 114/1/37 113/46/32 
f 42/31/24 41/32/28 70/32/37 69/31/33 
f 41/32/28 24/13/16 47/13/31 70/32/37 
f 24/13/16 23/14/16 48/14/31 47/13/31 
f 23/14/16 62/33/22 67/33/36 48/14/31 
f 62/33/22 77/34/5 68/34/34 67/33/36 
f 119/34/14 120/37/14 121/37/14 122/34/14 
f 120/37/14 123/38/14 124/38/14 121/37/14 
f 123/38/14 125/31/14 126/31/14 124/38/14 
f 99/36/27 98/35/40 89/35/36 88/36/37 
f 98/35/40 97/50/18 90/50/35 89/35/36 
f 97/50/18 100/49/41 87/49/32 90/50/35 
f 100/49/41 99/36/27 88/36/37 87/49/32 
f 124/38/46 121/37/47 120/37/48 123/38/49 
f 121/37/47 121/37/50 122/34/35 119/34/51 120/37/52 120/37/48 
f 123/38/49 123/38/53 125/31/26 126/31/32 124/38/50 124/38/46 
f 95/38/14 95/38/51 84/38/35 84/38/14 
f 95/38/51 102/37/26 85/37/32 84/38/35 
f 102/37/26 102/37/14 85/37/14 85/37/32 
f 102/37/14 101/48/42 86/48/37 85/37/14 
f 101/48/42 96/47/22 83/47/36 86/48/37 
f 96/47/22 95/38/14 84/38/14 83/47/36 
f 95/38/14 42/31/24 125/31/26 123/38/53 
f 42/31/24 69/31/33 126/31/32 125/31/26 
f 69/31/33 50/38/30 124/38/50 126/31/32 
f 50/38/30 50/38/14 124/38/46 124/38/50 
f 50/38/14 49/37/14 121/37/47 124/38/46 
f 49/37/14 49/37/30 121/37/50 121/37/47 
f 49/37/30 68/34/34 122/34/35 121/37/50 
f 68/34/34 77/34/5 119/34/51 122/34/35 
f 77/34/5 102/37/14 120/37/52 119/34/51 
f 102/37/14 102/37/26 120/37/48 120/37/52 
f 102/37/26 95/38/51 123/38/49 120/37/48 
f 95/38/51 95/38/14 123/38/53 123/38/49 
f 74/27/2 59/28/18 66/28/35 65/27/34 
f 59/28/18 18/11/14 43/11/29 66/28/35 
f 18/11/14 17/12/14 44/12/29 43/11/29 
f 17/12/14 36/29/25 63/29/32 44/12/29 
f 36/29/25 35/30/24 64/30/33 63/29/32 
f 127/30/27 128/35/17 129/35/31 130/30/37 
f 128/35/17 131/36/17 132/36/31 129/35/31 
f 131/36/17 133/27/40 134/27/36 132/36/31 
f 99/36/27 74/27/2 133/27/40 131/36/17 
f 74/27/2 65/27/34 134/27/36 133/27/40 
f 65/27/34 46/36/30 132/36/31 134/27/36 
f 46/36/30 45/35/30 129/35/31 132/36/31 
f 45/35/30 64/30/33 130/30/37 129/35/31 
f 64/30/33 35/30/24 127/30/27 130/30/37 
f 35/30/24 98/35/40 128/35/17 127/30/27 
f 98/35/40 99/36/27 131/36/17 128/35/17 
f 3/3/2 135/51/31 136/52/30 137/53/54 4/3/3 
f 138/54/43 55/16/30 7/2/6 111/2/44 103/16/43 106/17/43 118/3/35 6/3/5 
f 101/48/42 105/48/31 104/47/31 112/43/37 82/43/7 96/47/22 
f 135/51/31 3/3/2 115/6/45 107/18/31 110/15/31 114/1/37 8/1/7 58/15/31 
s 8
f 56/39/10 55/16/30 138/54/43 139/55/30 140/56/9 12/8/10 11/7/9 
f 141/57/12 136/52/30 135/51/31 58/15/31 57/40/11 14/10/12 13/9/11 
f 142/8/35 143/56/32 144/57/37 145/9/36 
f 146/10/37 147/40/36 148/39/35 149/7/32 
s off
f 57/40/11 56/39/10 148/39/35 147/40/36 
f 56/39/10 11/7/9 149/7/32 148/39/35 
f 11/7/9 14/10/12 146/10/37 149/7/32 
f 14/10/12 57/40/11 147/40/36 146/10/37 
f 140/56/9 141/57/12 144/57/37 143/56/32 
f 141/57/12 13/9/11 145/9/36 144/57/37 
f 13/9/11 12/8/10 142/8/35 145/9/36 
f 12/8/10 140/56/9 143/56/32 142/8/35 
f 139/55/30 138/54/43 6/3/5 5/3/4 150/58/55 
f 136/52/30 141/57/12 140/56/9 139/55/30 150/58/55 137/53/54 
f 151/58/56 152/3/57 153/3/58 154/53/59 
f 5/3/4 4/3/3 153/3/58 152/3/57 
f 4/3/3 137/53/54 154/53/59 153/3/58 
f 137/53/54 150/58/55 151/58/56 154/53/59 
f 150/58/55 5/3/4 152/3/57 151/58/56 
s 2
f 155/24/36 156/29/40 157/30/51 158/25/35 
f 159/26/51 160/27/35 161/28/36 162/23/40 
f 163/20/51 164/33/35 165/34/36 166/21/40 
f 167/22/36 168/31/40 169/32/51 170/19/35 
s off
f 62/28/22 31/23/21 162/23/40 161/28/36 
f 31/23/21 34/26/23 159/26/51 162/23/40 
f 34/26/23 77/27/5 160/27/35 159/26/51 
f 77/27/5 62/28/22 161/28/36 160/27/35 
f 61/29/17 71/30/38 157/30/51 156/29/40 
f 71/30/38 33/25/5 158/25/35 157/30/51 
f 33/25/5 32/24/22 155/24/36 158/25/35 
f 32/24/22 61/29/17 156/29/40 155/24/36 
f 59/33/18 74/34/2 165/34/36 164/33/35 
f 74/34/2 29/21/20 166/21/40 165/34/36 
f 29/21/20 28/20/19 163/20/51 166/21/40 
f 28/20/19 59/33/18 164/33/35 163/20/51 
f 60/32/13 27/19/18 170/19/35 169/32/51 
f 27/19/18 30/22/2 167/22/36 170/19/35 
f 30/22/2 72/31/39 168/31/40 167/22/36 
f 72/31/39 60/32/13 169/32/51 168/31/40 
# 161 polygons

